<svg width="64" height="64" viewBox="0 0 64 64" fill="none" xmlns="http://www.w3.org/2000/svg">
  <rect width="64" height="64" rx="16" fill="#09090B"/>
  <circle cx="32" cy="32" r="22" fill="#F59E0B"/>
  <path d="M32 10C24 16 20 24 20 32C20 40 24 48 32 54" stroke="#09090B" stroke-width="3" stroke-linecap="round"/>
  <path d="M32 10C40 16 44 24 44 32C44 40 40 48 32 54" stroke="#09090B" stroke-width="3" stroke-linecap="round"/>
  <path d="M12 32H52" stroke="#09090B" stroke-width="3" stroke-linecap="round"/>
  <path d="M16 22C23 24 28 28 32 32C36 36 41 40 48 42" stroke="#09090B" stroke-width="3" stroke-linecap="round"/>
  <path d="M16 42C23 40 28 36 32 32C36 28 41 24 48 22" stroke="#09090B" stroke-width="3" stroke-linecap="round"/>
  <text x="32" y="38" text-anchor="middle" font-family="Arial, Helvetica, sans-serif" font-size="16" font-weight="700" fill="#09090B">JP</text>
</svg>
